<?xml version="1.0" encoding="utf-8"?>
<!-- Generator: Adobe Illustrator 28.2.0, SVG Export Plug-In . SVG Version: 6.00 Build 0)  -->
<svg version="1.1" id="Layer_1" xmlns="http://www.w3.org/2000/svg" xmlns:xlink="http://www.w3.org/1999/xlink" x="0px" y="0px"
	 viewBox="0 0 1398.9 1593.3" style="enable-background:new 0 0 1398.9 1593.3;" xml:space="preserve">
<style type="text/css">
	.st0{fill:#2B0117;}
	.st1{fill:#FFE25B;}
	.st2{fill:#FFB820;}
	.st3{fill:#C85E40;}
	.st4{fill:#FFFFFF;}
	.st5{fill:#A22222;}
	.st6{fill:#55161F;}
	.st7{fill:#FFBE20;}
</style>
<path class="st0" d="M1291.3,796.3L1392,454l4.8-16.3c8.1-27.6-8.5-56.5-36.4-63.3l-16.5-4l-349.1-85.6l-245.3-257l-11.7-12.3
	c-19.8-20.7-52.9-20.9-72.8-0.3l-12,12.3L403,285.9L55,370.7l-16.4,4c-28,6.8-44.6,35.7-36.5,63.3l4.8,16.3l101.1,342.9L7.8,1140.2
	L3,1156.6c-8.1,27.7,8.6,56.5,36.6,63.3l16.4,4l348.3,84.2l248.6,257.5l11.9,12.3c19.9,20.7,53.1,20.6,72.9-0.2l11.7-12.3
	l246.5-258.3l347.9-85.1l16.5-4c28-6.8,44.6-35.7,36.5-63.3l-4.8-16.3L1291.3,796.3z M701.2,852.2L652.9,880v-55.5l-48.6-27.9
	l48.6-28v-55.5l48.2,27.8l48.3-27.8v55.5l48.6,27.8l0,0l-0.2,0.1l-48.4,27.9V880L701.2,852.2z"/>
<path class="st1" d="M798,796.4l-0.2,0.1l-48.4,27.9l-48.2,27.8h0l-0.1,0L652.9,880V713.1l48.2,27.8l48.3-27.8v55.5L798,796.4z"/>
<path class="st1" d="M701.2,47.2v749.3l650-374.7l-381.6-93.5L701.2,47.2z"/>
<path class="st2" d="M798,796.4l-0.2,0.1l-48.4,27.9V880l-48.2-27.8l-25.5-14.7l-0.3-0.2l-22.5-12.9l-48.4-27.9l48.4-27.9v0
	l48.2-27.8l0,0l48.3-27.8v55.5L798,796.4L798,796.4z"/>
<path class="st2" d="M1351.2,421.9l-650,374.7l650,374.1L1241,796.3L1351.2,421.9z"/>
<path class="st3" d="M797.8,796.5l-48.4,27.9V880l-48.2-27.8L652.9,880V713.1l48.2,27.8l23.3,13.4l3.1,1.8l21.8,12.6L797.8,796.5
	L797.8,796.5z"/>
<path class="st3" d="M1351.2,1170.6l-650-374.1v749.6l269.6-282.5L1351.2,1170.6z"/>
<path class="st2" d="M749.4,713.1V880l-48.2-27.8L652.9,880v-55.5l-48.6-27.9l48.6-28l48.2-27.8l0,0L749.4,713.1z"/>
<path class="st2" d="M701.2,1546.1V796.5L48.6,1172.4l380.7,92.1L701.2,1546.1z"/>
<path class="st1" d="M798,796.4l-0.2,0.1l-48.4,27.9l-48.2,27.8h0l-0.1,0L652.9,880v-55.5l-48.6-27.9l48.6-28v-55.3l48.2,27.6
	l23.4,13.4l3.1,1.8l21.8,12.5L798,796.4L798,796.4z"/>
<path class="st1" d="M48.6,1172.4l652.6-375.9L47.7,422.1l110.5,375.1L48.6,1172.4z"/>
<path class="st4" d="M749.4,713v166.7l-48.2-27.6h0l-25.5-14.6l-0.3-0.2l-22.5-12.9l-48.6-27.9l48.6-28v-55.5l48.2,27.8L749.4,713z"
	/>
<path class="st4" d="M701.2,47.2v749.3L47.7,422.1l380.3-92.7L701.2,47.2z"/>
<path class="st1" d="M701,1272.5c-249,0-482.2-214.8-451.7-487.5c0.1-0.4,0.1-0.9,0.1-1.3c10.3-89.4,35.3-173.7,73-246.6
	c80.6-123.6,220.1-205.2,378.7-205.2c160.4,0,301.4,83.6,381.5,209.7c36.4,71.9,60.4,154.5,69.9,242.2c0.1,1.2,0.3,2.5,0.4,3.7
	C1179.7,1055.8,955.5,1272.5,701,1272.5L701,1272.5z"/>
<path class="st5" d="M1153,783.7c0,1.2,0,2.5,0,3.7c-2,247.8-203.5,448.1-451.8,448.1c-249.1,0-451.1-201.6-451.8-450.6v-1.3
	c0-91,26.9-175.7,73.2-246.6c80.6-123.6,220.1-205.2,378.7-205.2c160.4,0,301.4,83.6,381.5,209.7
	C1127.2,611.5,1153,694.6,1153,783.7L1153,783.7z"/>
<circle class="st6" cx="699.4" cy="793.3" r="367.7"/>
<path class="st7" d="M1011.7,746.5c3.9,28.3,2.2,57.1-4.9,84.8C972.1,967,858.4,1022.4,700,1022.4
	c-157.7,3.7-274.5-51.1-308.5-198.6c-5.3-23.2-6.8-47.1-4.1-70.7C405.5,596.5,538.5,474.9,700,474.9
	C859.1,474.9,990.6,593.1,1011.7,746.5L1011.7,746.5z"/>
<path class="st7" d="M843,1069.1H555.8c-9.7,0-17.6-7.9-17.6-17.6V983h322.4v68.4C860.6,1061.2,852.7,1069.1,843,1069.1z"/>
<g>
	<path class="st6" d="M701.2,872.5l-45.3,78.4h90.5L701.2,872.5z"/>
	<ellipse class="st6" cx="844.5" cy="839.9" rx="90.9" ry="94.5"/>
	<ellipse class="st6" cx="561.5" cy="839.9" rx="90.9" ry="94.5"/>
	<path class="st6" d="M686.2,766.1l-15,15c-4.3,4.3-11.4,4.3-15.7,0l-55.4-55.4c-4.3-4.3-4.3-11.4,0-15.7l15-15
		c4.3-4.3,11.4-4.3,15.7,0l55.4,55.4C690.6,754.7,690.6,761.8,686.2,766.1L686.2,766.1z M801.6,710l-15-15c-4.3-4.3-11.4-4.3-15.7,0
		l-55.4,55.4c-4.3,4.3-4.3,11.4,0,15.7l15,15c4.3,4.3,11.4,4.3,15.7,0l55.4-55.4C805.9,721.4,805.9,714.3,801.6,710L801.6,710z"/>
</g>
<ellipse transform="matrix(0.8449 -0.5349 0.5349 0.8449 -240.947 398.6314)" class="st4" cx="566.9" cy="614.8" rx="111.3" ry="73.4"/>
</svg>
